<svg id="wave" style="transform:rotate(0deg); transition: 0.3s" viewBox="0 0 1440 490" version="1.1" xmlns="http://www.w3.org/2000/svg"><defs><linearGradient id="sw-gradient-0" x1="0" x2="0" y1="1" y2="0"><stop stop-color="rgba(219, 96, 110, 1)" offset="0%"></stop><stop stop-color="rgba(251, 125, 67, 1)" offset="100%"></stop></linearGradient></defs><path style="transform:translate(0, 0px); opacity:1" fill="url(#sw-gradient-0)" d="M0,392L34.3,326.7C68.6,261,137,131,206,98C274.3,65,343,131,411,130.7C480,131,549,65,617,89.8C685.7,114,754,229,823,294C891.4,359,960,376,1029,367.5C1097.1,359,1166,327,1234,334.8C1302.9,343,1371,392,1440,367.5C1508.6,343,1577,245,1646,171.5C1714.3,98,1783,49,1851,40.8C1920,33,1989,65,2057,130.7C2125.7,196,2194,294,2263,318.5C2331.4,343,2400,294,2469,261.3C2537.1,229,2606,212,2674,220.5C2742.9,229,2811,261,2880,277.7C2948.6,294,3017,294,3086,253.2C3154.3,212,3223,131,3291,147C3360,163,3429,278,3497,269.5C3565.7,261,3634,131,3703,65.3C3771.4,0,3840,0,3909,57.2C3977.1,114,4046,229,4114,261.3C4182.9,294,4251,245,4320,187.8C4388.6,131,4457,65,4526,73.5C4594.3,82,4663,163,4731,204.2C4800,245,4869,245,4903,245L4937.1,245L4937.1,490L4902.9,490C4868.6,490,4800,490,4731,490C4662.9,490,4594,490,4526,490C4457.1,490,4389,490,4320,490C4251.4,490,4183,490,4114,490C4045.7,490,3977,490,3909,490C3840,490,3771,490,3703,490C3634.3,490,3566,490,3497,490C3428.6,490,3360,490,3291,490C3222.9,490,3154,490,3086,490C3017.1,490,2949,490,2880,490C2811.4,490,2743,490,2674,490C2605.7,490,2537,490,2469,490C2400,490,2331,490,2263,490C2194.3,490,2126,490,2057,490C1988.6,490,1920,490,1851,490C1782.9,490,1714,490,1646,490C1577.1,490,1509,490,1440,490C1371.4,490,1303,490,1234,490C1165.7,490,1097,490,1029,490C960,490,891,490,823,490C754.3,490,686,490,617,490C548.6,490,480,490,411,490C342.9,490,274,490,206,490C137.1,490,69,490,34,490L0,490Z"></path><defs><linearGradient id="sw-gradient-1" x1="0" x2="0" y1="1" y2="0"><stop stop-color="rgba(222, 119, 242, 1)" offset="0%"></stop><stop stop-color="rgba(251, 125, 67, 1)" offset="100%"></stop></linearGradient></defs><path style="transform:translate(0, 50px); opacity:0.9" fill="url(#sw-gradient-1)" d="M0,49L34.3,65.3C68.6,82,137,114,206,147C274.3,180,343,212,411,236.8C480,261,549,278,617,277.7C685.7,278,754,261,823,212.3C891.4,163,960,82,1029,106.2C1097.1,131,1166,261,1234,261.3C1302.9,261,1371,131,1440,81.7C1508.6,33,1577,65,1646,89.8C1714.3,114,1783,131,1851,171.5C1920,212,1989,278,2057,318.5C2125.7,359,2194,376,2263,383.8C2331.4,392,2400,392,2469,392C2537.1,392,2606,392,2674,383.8C2742.9,376,2811,359,2880,359.3C2948.6,359,3017,376,3086,318.5C3154.3,261,3223,131,3291,138.8C3360,147,3429,294,3497,302.2C3565.7,310,3634,180,3703,130.7C3771.4,82,3840,114,3909,147C3977.1,180,4046,212,4114,261.3C4182.9,310,4251,376,4320,375.7C4388.6,376,4457,310,4526,302.2C4594.3,294,4663,343,4731,359.3C4800,376,4869,359,4903,351.2L4937.1,343L4937.1,490L4902.9,490C4868.6,490,4800,490,4731,490C4662.9,490,4594,490,4526,490C4457.1,490,4389,490,4320,490C4251.4,490,4183,490,4114,490C4045.7,490,3977,490,3909,490C3840,490,3771,490,3703,490C3634.3,490,3566,490,3497,490C3428.6,490,3360,490,3291,490C3222.9,490,3154,490,3086,490C3017.1,490,2949,490,2880,490C2811.4,490,2743,490,2674,490C2605.7,490,2537,490,2469,490C2400,490,2331,490,2263,490C2194.3,490,2126,490,2057,490C1988.6,490,1920,490,1851,490C1782.9,490,1714,490,1646,490C1577.1,490,1509,490,1440,490C1371.4,490,1303,490,1234,490C1165.7,490,1097,490,1029,490C960,490,891,490,823,490C754.3,490,686,490,617,490C548.6,490,480,490,411,490C342.9,490,274,490,206,490C137.1,490,69,490,34,490L0,490Z"></path><defs><linearGradient id="sw-gradient-2" x1="0" x2="0" y1="1" y2="0"><stop stop-color="rgba(112, 177, 255, 1)" offset="0%"></stop><stop stop-color="rgba(222, 119, 242, 1)" offset="100%"></stop></linearGradient></defs><path style="transform:translate(0, 100px); opacity:0.8" fill="url(#sw-gradient-2)" d="M0,0L34.3,24.5C68.6,49,137,98,206,147C274.3,196,343,245,411,269.5C480,294,549,294,617,310.3C685.7,327,754,359,823,326.7C891.4,294,960,196,1029,155.2C1097.1,114,1166,131,1234,171.5C1302.9,212,1371,278,1440,310.3C1508.6,343,1577,343,1646,343C1714.3,343,1783,343,1851,310.3C1920,278,1989,212,2057,220.5C2125.7,229,2194,310,2263,343C2331.4,376,2400,359,2469,326.7C2537.1,294,2606,245,2674,245C2742.9,245,2811,294,2880,277.7C2948.6,261,3017,180,3086,171.5C3154.3,163,3223,229,3291,261.3C3360,294,3429,294,3497,277.7C3565.7,261,3634,229,3703,196C3771.4,163,3840,131,3909,114.3C3977.1,98,4046,98,4114,138.8C4182.9,180,4251,261,4320,277.7C4388.6,294,4457,245,4526,261.3C4594.3,278,4663,359,4731,359.3C4800,359,4869,278,4903,236.8L4937.1,196L4937.1,490L4902.9,490C4868.6,490,4800,490,4731,490C4662.9,490,4594,490,4526,490C4457.1,490,4389,490,4320,490C4251.4,490,4183,490,4114,490C4045.7,490,3977,490,3909,490C3840,490,3771,490,3703,490C3634.3,490,3566,490,3497,490C3428.6,490,3360,490,3291,490C3222.9,490,3154,490,3086,490C3017.1,490,2949,490,2880,490C2811.4,490,2743,490,2674,490C2605.7,490,2537,490,2469,490C2400,490,2331,490,2263,490C2194.3,490,2126,490,2057,490C1988.6,490,1920,490,1851,490C1782.9,490,1714,490,1646,490C1577.1,490,1509,490,1440,490C1371.4,490,1303,490,1234,490C1165.7,490,1097,490,1029,490C960,490,891,490,823,490C754.3,490,686,490,617,490C548.6,490,480,490,411,490C342.9,490,274,490,206,490C137.1,490,69,490,34,490L0,490Z"></path></svg>