<svg width="48" height="40" viewBox="0 0 48 40" fill="none" xmlns="http://www.w3.org/2000/svg">
<path d="M15.1003 39.0014C33.2091 39.0014 43.1166 23.9949 43.1166 10.9852C43.1166 10.5633 43.1072 10.1321 43.0884 9.71019C45.0157 8.31639 46.679 6.58997 48 4.61206C46.205 5.41066 44.2993 5.93223 42.3478 6.15894C44.4026 4.92728 45.9411 2.99241 46.6781 0.712998C44.7451 1.85858 42.6312 2.66669 40.4269 3.10269C38.9417 1.52459 36.978 0.479697 34.8394 0.129567C32.7008 -0.220564 30.5064 0.143566 28.5955 1.16566C26.6846 2.18775 25.1636 3.81088 24.2677 5.78409C23.3718 7.7573 23.1509 9.9707 23.6391 12.0821C19.725 11.8856 15.8959 10.8689 12.4 9.09766C8.90405 7.32645 5.81939 4.84034 3.34594 1.8005C2.0888 3.96795 1.70411 6.53276 2.27006 8.97365C2.83601 11.4145 4.31013 13.5484 6.39281 14.9414C4.82926 14.8918 3.29995 14.4708 1.93125 13.7133V13.8352C1.92985 16.1098 2.7162 18.3146 4.15662 20.075C5.59704 21.8354 7.60265 23.0426 9.8325 23.4914C8.38411 23.8877 6.86396 23.9455 5.38969 23.6602C6.01891 25.6163 7.24315 27.3272 8.89154 28.5541C10.5399 29.781 12.5302 30.4627 14.5847 30.5039C11.0968 33.2437 6.78835 34.7297 2.35313 34.7227C1.56657 34.7215 0.780798 34.6733 0 34.5783C4.50571 37.469 9.74706 39.0042 15.1003 39.0014Z" fill="black"/>
</svg>
