<?xml version="1.0" standalone="no"?>
<!DOCTYPE svg PUBLIC "-//W3C//DTD SVG 20010904//EN"
 "http://www.w3.org/TR/2001/REC-SVG-20010904/DTD/svg10.dtd">
<svg version="1.0" xmlns="http://www.w3.org/2000/svg"
 width="500.000000pt" height="500.000000pt" viewBox="0 0 500.000000 500.000000"
 preserveAspectRatio="xMidYMid meet">
<metadata>
Created by potrace 1.14, written by Peter Selinger 2001-2017
</metadata>
<g transform="translate(0.000000,500.000000) scale(0.100000,-0.100000)"
fill="#000000" stroke="none">
<path d="M2397 4984 c-1 -1 -31 -5 -67 -8 -178 -18 -382 -106 -570 -245 -41
-30 -131 -112 -200 -181 -133 -133 -141 -142 -210 -235 -25 -33 -47 -62 -50
-65 -33 -30 -200 -310 -297 -500 -41 -80 -78 -148 -82 -152 -3 -3 -28 -9 -56
-12 -27 -4 -57 -9 -65 -11 -8 -2 -26 -6 -40 -9 -118 -21 -319 -86 -419 -135
-139 -67 -245 -200 -290 -361 -17 -62 -20 -95 -17 -185 5 -112 6 -125 31 -300
14 -96 19 -125 30 -180 3 -14 7 -37 10 -52 3 -16 8 -39 11 -53 3 -14 7 -32 9
-40 30 -146 78 -272 136 -357 55 -81 151 -168 229 -208 19 -10 36 -19 38 -20
2 -2 6 -23 8 -47 3 -23 7 -56 9 -73 1 -16 8 -31 14 -33 6 -2 11 -10 11 -19 0
-8 23 -83 50 -166 83 -251 187 -441 340 -622 109 -130 241 -259 331 -324 46
-34 89 -65 94 -69 25 -19 118 -70 205 -113 147 -72 373 -140 575 -174 143 -24
491 -24 585 0 8 2 38 6 65 10 132 16 381 87 484 139 312 156 618 427 794 701
92 144 211 410 243 545 9 41 21 77 25 80 7 5 18 73 19 120 0 20 12 31 66 59
61 32 137 96 192 164 69 85 144 307 186 552 26 149 41 266 52 395 15 171 -1
280 -58 390 -78 154 -188 234 -418 305 -66 20 -45 15 -254 62 l-169 38 -34 75
c-162 358 -346 639 -570 865 -110 112 -146 144 -240 211 -180 129 -364 207
-543 230 -53 6 -188 12 -193 8z"/>
</g>
</svg>
